<svg width="40" height="40" viewBox="0 0 40 40" fill="none" xmlns="http://www.w3.org/2000/svg">
<path d="M0 20C0 8.95431 8.95431 0 20 0H40V20C40 31.0457 31.0457 40 20 40V40C8.95431 40 0 31.0457 0 20V20Z" fill="#8643DC"/>
<path d="M16 10C16 4.47715 20.4772 0 26 0H40V13C40 18.5228 35.5228 23 30 23H16V10Z" fill="#FF59C1"/>
<path d="M11.49 30V9H20.58C22.46 9 24.08 9.31 25.44 9.93C26.8 10.53 27.85 11.4 28.59 12.54C29.33 13.68 29.7 15.04 29.7 16.62C29.7 18.18 29.33 19.53 28.59 20.67C27.85 21.79 26.8 22.65 25.44 23.25C24.08 23.85 22.46 24.15 20.58 24.15H14.19L16.35 22.02V30H11.49ZM24.84 30L19.59 22.38H24.78L30.09 30H24.84ZM16.35 22.56L14.19 20.28H20.31C21.81 20.28 22.93 19.96 23.67 19.32C24.41 18.66 24.78 17.76 24.78 16.62C24.78 15.46 24.41 14.56 23.67 13.92C22.93 13.28 21.81 12.96 20.31 12.96H14.19L16.35 10.65V22.56Z" fill="white"/>
</svg>
